<svg width="723" height="144" viewBox="0 0 723 144" fill="none" xmlns="http://www.w3.org/2000/svg">
<path fill-rule="evenodd" clip-rule="evenodd" d="M28.6 9C31.4719 9 33.8 11.3452 33.8 14.2381V19.4762H70.2V14.2381C70.2 11.3452 72.5281 9 75.4 9C78.2719 9 80.6 11.3452 80.6 14.2381V19.6055C93.7386 20.9195 104 32.086 104 45.6667V92.8095C104 107.274 92.3594 119 78 119H26C11.6406 119 0 107.274 0 92.8095V45.6667C0 32.086 10.2614 20.9195 23.4 19.6055V14.2381C23.4 11.3452 25.7281 9 28.6 9ZM11.2877 40.4286H92.7123C90.5708 34.3252 84.7923 29.9524 78 29.9524H26C19.2077 29.9524 13.4292 34.3252 11.2877 40.4286ZM93.6 50.9048H10.4V92.8095C10.4 101.488 17.3844 108.524 26 108.524H78C86.6156 108.524 93.6 101.488 93.6 92.8095V50.9048ZM20.8 66.619C20.8 63.7261 23.1281 61.381 26 61.381H46.8C49.6719 61.381 52 63.7261 52 66.619V87.5714C52 90.4644 49.6719 92.8095 46.8 92.8095H26C23.1281 92.8095 20.8 90.4644 20.8 87.5714V66.619ZM41.6 71.8571H31.2V82.3333H41.6V71.8571Z" fill="#3F82BE"/>
<path d="M174.848 118.096L163.136 105.424C160.256 106.256 157.088 106.672 153.632 106.672C147.424 106.672 141.696 105.232 136.448 102.352C131.264 99.408 127.136 95.344 124.064 90.16C121.056 84.912 119.552 79.024 119.552 72.496C119.552 65.968 121.056 60.112 124.064 54.928C127.136 49.744 131.264 45.712 136.448 42.832C141.696 39.888 147.424 38.416 153.632 38.416C159.904 38.416 165.632 39.888 170.816 42.832C176.064 45.712 180.192 49.744 183.2 54.928C186.208 60.112 187.712 65.968 187.712 72.496C187.712 78.64 186.368 84.208 183.68 89.2C181.056 94.128 177.408 98.096 172.736 101.104L188.768 118.096H174.848ZM130.784 72.496C130.784 77.424 131.744 81.776 133.664 85.552C135.648 89.264 138.368 92.144 141.824 94.192C145.28 96.176 149.216 97.168 153.632 97.168C158.048 97.168 161.984 96.176 165.44 94.192C168.896 92.144 171.584 89.264 173.504 85.552C175.488 81.776 176.48 77.424 176.48 72.496C176.48 67.568 175.488 63.248 173.504 59.536C171.584 55.824 168.896 52.976 165.44 50.992C161.984 49.008 158.048 48.016 153.632 48.016C149.216 48.016 145.28 49.008 141.824 50.992C138.368 52.976 135.648 55.824 133.664 59.536C131.744 63.248 130.784 67.568 130.784 72.496ZM246.667 53.104V106H235.723V99.76C233.995 101.936 231.723 103.664 228.907 104.944C226.155 106.16 223.211 106.768 220.075 106.768C215.915 106.768 212.171 105.904 208.843 104.176C205.579 102.448 202.987 99.888 201.067 96.496C199.211 93.104 198.283 89.008 198.283 84.208V53.104H209.131V82.576C209.131 87.312 210.315 90.96 212.683 93.52C215.051 96.016 218.283 97.264 222.379 97.264C226.475 97.264 229.707 96.016 232.075 93.52C234.507 90.96 235.723 87.312 235.723 82.576V53.104H246.667ZM266.674 46.096C264.69 46.096 263.026 45.424 261.682 44.08C260.338 42.736 259.666 41.072 259.666 39.088C259.666 37.104 260.338 35.44 261.682 34.096C263.026 32.752 264.69 32.08 266.674 32.08C268.594 32.08 270.226 32.752 271.57 34.096C272.914 35.44 273.586 37.104 273.586 39.088C273.586 41.072 272.914 42.736 271.57 44.08C270.226 45.424 268.594 46.096 266.674 46.096ZM272.05 53.104V106H261.106V53.104H272.05ZM282.771 79.504C282.771 74.064 283.859 69.296 286.035 65.2C288.275 61.04 291.347 57.84 295.251 55.6C299.155 53.36 303.635 52.24 308.691 52.24C315.091 52.24 320.371 53.776 324.531 56.848C328.755 59.856 331.603 64.176 333.075 69.808H321.267C320.307 67.184 318.771 65.136 316.659 63.664C314.547 62.192 311.891 61.456 308.691 61.456C304.211 61.456 300.627 63.056 297.939 66.256C295.315 69.392 294.003 73.808 294.003 79.504C294.003 85.2 295.315 89.648 297.939 92.848C300.627 96.048 304.211 97.648 308.691 97.648C315.027 97.648 319.219 94.864 321.267 89.296H333.075C331.539 94.672 328.659 98.96 324.435 102.16C320.211 105.296 314.963 106.864 308.691 106.864C303.635 106.864 299.155 105.744 295.251 103.504C291.347 101.2 288.275 98 286.035 93.904C283.859 89.744 282.771 84.944 282.771 79.504ZM364.909 79.6L389.293 106H374.509L354.925 83.248V106H343.981V34.96H354.925V76.24L374.125 53.104H389.293L364.909 79.6ZM432.85 71.728C436.434 72.368 439.474 74.256 441.97 77.392C444.466 80.528 445.714 84.08 445.714 88.048C445.714 91.44 444.818 94.512 443.026 97.264C441.298 99.952 438.77 102.096 435.442 103.696C432.114 105.232 428.242 106 423.826 106H397.138V39.28H422.578C427.122 39.28 431.026 40.048 434.29 41.584C437.554 43.12 440.018 45.2 441.682 47.824C443.346 50.384 444.177 53.264 444.177 56.464C444.177 60.304 443.154 63.504 441.106 66.064C439.058 68.624 436.306 70.512 432.85 71.728ZM408.082 67.312H421.618C425.202 67.312 427.986 66.512 429.97 64.912C432.018 63.248 433.042 60.88 433.042 57.808C433.042 54.8 432.018 52.464 429.97 50.8C427.986 49.072 425.202 48.208 421.618 48.208H408.082V67.312ZM422.866 97.072C426.578 97.072 429.49 96.176 431.602 94.384C433.714 92.592 434.77 90.096 434.77 86.896C434.77 83.632 433.65 81.04 431.41 79.12C429.17 77.2 426.194 76.24 422.482 76.24H408.082V97.072H422.866ZM480.55 106.864C475.558 106.864 471.046 105.744 467.014 103.504C462.982 101.2 459.814 98 457.51 93.904C455.206 89.744 454.054 84.944 454.054 79.504C454.054 74.128 455.238 69.36 457.606 65.2C459.974 61.04 463.206 57.84 467.302 55.6C471.398 53.36 475.974 52.24 481.03 52.24C486.086 52.24 490.662 53.36 494.758 55.6C498.854 57.84 502.086 61.04 504.454 65.2C506.822 69.36 508.006 74.128 508.006 79.504C508.006 84.88 506.79 89.648 504.358 93.808C501.926 97.968 498.598 101.2 494.374 103.504C490.214 105.744 485.606 106.864 480.55 106.864ZM480.55 97.36C483.366 97.36 485.99 96.688 488.422 95.344C490.918 94 492.934 91.984 494.47 89.296C496.006 86.608 496.774 83.344 496.774 79.504C496.774 75.664 496.038 72.432 494.566 69.808C493.094 67.12 491.142 65.104 488.71 63.76C486.278 62.416 483.654 61.744 480.838 61.744C478.022 61.744 475.398 62.416 472.966 63.76C470.598 65.104 468.71 67.12 467.302 69.808C465.894 72.432 465.19 75.664 465.19 79.504C465.19 85.2 466.63 89.616 469.51 92.752C472.454 95.824 476.134 97.36 480.55 97.36ZM541.769 106.864C536.777 106.864 532.265 105.744 528.233 103.504C524.201 101.2 521.033 98 518.729 93.904C516.425 89.744 515.273 84.944 515.273 79.504C515.273 74.128 516.457 69.36 518.825 65.2C521.193 61.04 524.425 57.84 528.521 55.6C532.617 53.36 537.193 52.24 542.249 52.24C547.305 52.24 551.881 53.36 555.977 55.6C560.073 57.84 563.305 61.04 565.673 65.2C568.041 69.36 569.225 74.128 569.225 79.504C569.225 84.88 568.009 89.648 565.577 93.808C563.145 97.968 559.817 101.2 555.593 103.504C551.433 105.744 546.825 106.864 541.769 106.864ZM541.769 97.36C544.585 97.36 547.209 96.688 549.641 95.344C552.137 94 554.153 91.984 555.689 89.296C557.225 86.608 557.993 83.344 557.993 79.504C557.993 75.664 557.257 72.432 555.785 69.808C554.313 67.12 552.361 65.104 549.929 63.76C547.497 62.416 544.873 61.744 542.057 61.744C539.241 61.744 536.617 62.416 534.185 63.76C531.817 65.104 529.929 67.12 528.521 69.808C527.113 72.432 526.409 75.664 526.409 79.504C526.409 85.2 527.849 89.616 530.729 92.752C533.673 95.824 537.353 97.36 541.769 97.36ZM600.972 79.6L625.356 106H610.572L590.988 83.248V106H580.044V34.96H590.988V76.24L610.188 53.104H625.356L600.972 79.6ZM681.68 78.256C681.68 80.24 681.552 82.032 681.296 83.632H640.88C641.2 87.856 642.768 91.248 645.584 93.808C648.4 96.368 651.856 97.648 655.952 97.648C661.84 97.648 666 95.184 668.432 90.256H680.24C678.64 95.12 675.728 99.12 671.504 102.256C667.344 105.328 662.16 106.864 655.952 106.864C650.896 106.864 646.352 105.744 642.32 103.504C638.352 101.2 635.216 98 632.912 93.904C630.672 89.744 629.552 84.944 629.552 79.504C629.552 74.064 630.64 69.296 632.816 65.2C635.056 61.04 638.16 57.84 642.128 55.6C646.16 53.36 650.768 52.24 655.952 52.24C660.944 52.24 665.392 53.328 669.296 55.504C673.2 57.68 676.24 60.752 678.416 64.72C680.592 68.624 681.68 73.136 681.68 78.256ZM670.256 74.8C670.192 70.768 668.752 67.536 665.936 65.104C663.12 62.672 659.632 61.456 655.472 61.456C651.696 61.456 648.464 62.672 645.776 65.104C643.088 67.472 641.488 70.704 640.976 74.8H670.256ZM703.394 60.784C704.994 58.096 707.106 56.016 709.73 54.544C712.418 53.008 715.586 52.24 719.234 52.24V63.568H716.45C712.162 63.568 708.898 64.656 706.658 66.832C704.482 69.008 703.394 72.784 703.394 78.16V106H692.45V53.104H703.394V60.784Z" fill="white"/>
</svg>
