<svg width="607" height="215" viewBox="0 0 607 215" fill="none" xmlns="http://www.w3.org/2000/svg">
<path d="M58.848 153.096L47.136 140.424C44.256 141.256 41.088 141.672 37.632 141.672C31.424 141.672 25.696 140.232 20.448 137.352C15.264 134.408 11.136 130.344 8.064 125.16C5.056 119.912 3.552 114.024 3.552 107.496C3.552 100.968 5.056 95.112 8.064 89.928C11.136 84.744 15.264 80.712 20.448 77.832C25.696 74.888 31.424 73.416 37.632 73.416C43.904 73.416 49.632 74.888 54.816 77.832C60.064 80.712 64.192 84.744 67.2 89.928C70.208 95.112 71.712 100.968 71.712 107.496C71.712 113.64 70.368 119.208 67.68 124.2C65.056 129.128 61.408 133.096 56.736 136.104L72.768 153.096H58.848ZM14.784 107.496C14.784 112.424 15.744 116.776 17.664 120.552C19.648 124.264 22.368 127.144 25.824 129.192C29.28 131.176 33.216 132.168 37.632 132.168C42.048 132.168 45.984 131.176 49.44 129.192C52.896 127.144 55.584 124.264 57.504 120.552C59.488 116.776 60.48 112.424 60.48 107.496C60.48 102.568 59.488 98.248 57.504 94.536C55.584 90.824 52.896 87.976 49.44 85.992C45.984 84.008 42.048 83.016 37.632 83.016C33.216 83.016 29.28 84.008 25.824 85.992C22.368 87.976 19.648 90.824 17.664 94.536C15.744 98.248 14.784 102.568 14.784 107.496ZM130.667 88.104V141H119.723V134.76C117.995 136.936 115.723 138.664 112.907 139.944C110.155 141.16 107.211 141.768 104.075 141.768C99.9145 141.768 96.1705 140.904 92.8425 139.176C89.5785 137.448 86.9865 134.888 85.0665 131.496C83.2105 128.104 82.2825 124.008 82.2825 119.208V88.104H93.1305V117.576C93.1305 122.312 94.3145 125.96 96.6825 128.52C99.0505 131.016 102.283 132.264 106.379 132.264C110.475 132.264 113.707 131.016 116.075 128.52C118.507 125.96 119.723 122.312 119.723 117.576V88.104H130.667ZM150.674 81.096C148.69 81.096 147.026 80.424 145.682 79.08C144.338 77.736 143.666 76.072 143.666 74.088C143.666 72.104 144.338 70.44 145.682 69.096C147.026 67.752 148.69 67.08 150.674 67.08C152.594 67.08 154.226 67.752 155.57 69.096C156.914 70.44 157.586 72.104 157.586 74.088C157.586 76.072 156.914 77.736 155.57 79.08C154.226 80.424 152.594 81.096 150.674 81.096ZM156.05 88.104V141H145.106V88.104H156.05ZM166.771 114.504C166.771 109.064 167.859 104.296 170.035 100.2C172.275 96.04 175.347 92.84 179.251 90.6C183.155 88.36 187.635 87.24 192.691 87.24C199.091 87.24 204.371 88.776 208.531 91.848C212.755 94.856 215.603 99.176 217.075 104.808H205.267C204.307 102.184 202.771 100.136 200.659 98.664C198.547 97.192 195.891 96.456 192.691 96.456C188.211 96.456 184.627 98.056 181.939 101.256C179.315 104.392 178.003 108.808 178.003 114.504C178.003 120.2 179.315 124.648 181.939 127.848C184.627 131.048 188.211 132.648 192.691 132.648C199.027 132.648 203.219 129.864 205.267 124.296H217.075C215.539 129.672 212.659 133.96 208.435 137.16C204.211 140.296 198.963 141.864 192.691 141.864C187.635 141.864 183.155 140.744 179.251 138.504C175.347 136.2 172.275 133 170.035 128.904C167.859 124.744 166.771 119.944 166.771 114.504ZM248.909 114.6L273.293 141H258.509L238.925 118.248V141H227.981V69.96H238.925V111.24L258.125 88.104H273.293L248.909 114.6ZM316.85 106.728C320.434 107.368 323.474 109.256 325.97 112.392C328.466 115.528 329.714 119.08 329.714 123.048C329.714 126.44 328.818 129.512 327.026 132.264C325.298 134.952 322.77 137.096 319.442 138.696C316.114 140.232 312.242 141 307.826 141H281.138V74.28H306.578C311.122 74.28 315.026 75.048 318.29 76.584C321.554 78.12 324.018 80.2 325.682 82.824C327.346 85.384 328.177 88.264 328.177 91.464C328.177 95.304 327.154 98.504 325.106 101.064C323.058 103.624 320.306 105.512 316.85 106.728ZM292.082 102.312H305.618C309.202 102.312 311.986 101.512 313.97 99.912C316.018 98.248 317.042 95.88 317.042 92.808C317.042 89.8 316.018 87.464 313.97 85.8C311.986 84.072 309.202 83.208 305.618 83.208H292.082V102.312ZM306.866 132.072C310.578 132.072 313.49 131.176 315.602 129.384C317.714 127.592 318.77 125.096 318.77 121.896C318.77 118.632 317.65 116.04 315.41 114.12C313.17 112.2 310.194 111.24 306.482 111.24H292.082V132.072H306.866ZM364.55 141.864C359.558 141.864 355.046 140.744 351.014 138.504C346.982 136.2 343.814 133 341.51 128.904C339.206 124.744 338.054 119.944 338.054 114.504C338.054 109.128 339.238 104.36 341.606 100.2C343.974 96.04 347.206 92.84 351.302 90.6C355.398 88.36 359.974 87.24 365.03 87.24C370.086 87.24 374.662 88.36 378.758 90.6C382.854 92.84 386.086 96.04 388.454 100.2C390.822 104.36 392.006 109.128 392.006 114.504C392.006 119.88 390.79 124.648 388.358 128.808C385.926 132.968 382.598 136.2 378.374 138.504C374.214 140.744 369.606 141.864 364.55 141.864ZM364.55 132.36C367.366 132.36 369.99 131.688 372.422 130.344C374.918 129 376.934 126.984 378.47 124.296C380.006 121.608 380.774 118.344 380.774 114.504C380.774 110.664 380.038 107.432 378.566 104.808C377.094 102.12 375.142 100.104 372.71 98.76C370.278 97.416 367.654 96.744 364.838 96.744C362.022 96.744 359.398 97.416 356.966 98.76C354.598 100.104 352.71 102.12 351.302 104.808C349.894 107.432 349.19 110.664 349.19 114.504C349.19 120.2 350.63 124.616 353.51 127.752C356.454 130.824 360.134 132.36 364.55 132.36ZM425.769 141.864C420.777 141.864 416.265 140.744 412.233 138.504C408.201 136.2 405.033 133 402.729 128.904C400.425 124.744 399.273 119.944 399.273 114.504C399.273 109.128 400.457 104.36 402.825 100.2C405.193 96.04 408.425 92.84 412.521 90.6C416.617 88.36 421.193 87.24 426.249 87.24C431.305 87.24 435.881 88.36 439.977 90.6C444.073 92.84 447.305 96.04 449.673 100.2C452.041 104.36 453.225 109.128 453.225 114.504C453.225 119.88 452.009 124.648 449.577 128.808C447.145 132.968 443.817 136.2 439.593 138.504C435.433 140.744 430.825 141.864 425.769 141.864ZM425.769 132.36C428.585 132.36 431.209 131.688 433.641 130.344C436.137 129 438.153 126.984 439.689 124.296C441.225 121.608 441.993 118.344 441.993 114.504C441.993 110.664 441.257 107.432 439.785 104.808C438.313 102.12 436.361 100.104 433.929 98.76C431.497 97.416 428.873 96.744 426.057 96.744C423.241 96.744 420.617 97.416 418.185 98.76C415.817 100.104 413.929 102.12 412.521 104.808C411.113 107.432 410.409 110.664 410.409 114.504C410.409 120.2 411.849 124.616 414.729 127.752C417.673 130.824 421.353 132.36 425.769 132.36ZM484.972 114.6L509.356 141H494.572L474.988 118.248V141H464.044V69.96H474.988V111.24L494.188 88.104H509.356L484.972 114.6ZM565.68 113.256C565.68 115.24 565.552 117.032 565.296 118.632H524.88C525.2 122.856 526.768 126.248 529.584 128.808C532.4 131.368 535.856 132.648 539.952 132.648C545.84 132.648 550 130.184 552.432 125.256H564.24C562.64 130.12 559.728 134.12 555.504 137.256C551.344 140.328 546.16 141.864 539.952 141.864C534.896 141.864 530.352 140.744 526.32 138.504C522.352 136.2 519.216 133 516.912 128.904C514.672 124.744 513.552 119.944 513.552 114.504C513.552 109.064 514.64 104.296 516.816 100.2C519.056 96.04 522.16 92.84 526.128 90.6C530.16 88.36 534.768 87.24 539.952 87.24C544.944 87.24 549.392 88.328 553.296 90.504C557.2 92.68 560.24 95.752 562.416 99.72C564.592 103.624 565.68 108.136 565.68 113.256ZM554.256 109.8C554.192 105.768 552.752 102.536 549.936 100.104C547.12 97.672 543.632 96.456 539.472 96.456C535.696 96.456 532.464 97.672 529.776 100.104C527.088 102.472 525.488 105.704 524.976 109.8H554.256ZM587.394 95.784C588.994 93.096 591.106 91.016 593.73 89.544C596.418 88.008 599.586 87.24 603.234 87.24V98.568H600.45C596.162 98.568 592.898 99.656 590.658 101.832C588.482 104.008 587.394 107.784 587.394 113.16V141H576.45V88.104H587.394V95.784Z" fill="#00143C"/>
<path d="M195 28.3366L97.5 0L85.6974 3.41089L40.5395 16.5297L0 28.3366V52.4752L0.513153 53L4.61841 51.6881L35.4079 42.7673L60.5526 35.4208L97.5 24.6634L194.487 53L195 52.4752V28.3366Z" fill="#005AEE"/>
<path d="M195 186.663L97.5 215L85.6974 211.589L40.5395 198.47L0 186.663V162.525L0.513153 162L4.61841 163.312L35.4079 172.233L60.5526 179.579L97.5 190.337L194.487 162L195 162.525V186.663Z" fill="#3BA6FF"/>
</svg>
