<svg width="372" height="60" viewBox="0 0 372 60" fill="none" xmlns="http://www.w3.org/2000/svg">
<path fill-rule="evenodd" clip-rule="evenodd" d="M14.85 2C16.3412 2 17.55 3.21523 17.55 4.71429V7.42857H36.45V4.71429C36.45 3.21523 37.6588 2 39.15 2C40.6412 2 41.85 3.21523 41.85 4.71429V7.49558C48.672 8.17649 54 13.9627 54 21V45.4286C54 52.9239 47.9558 59 40.5 59H13.5C6.04416 59 0 52.9239 0 45.4286V21C0 13.9627 5.32801 8.17649 12.15 7.49558V4.71429C12.15 3.21523 13.3588 2 14.85 2ZM5.86091 18.2857H48.1391C47.0271 15.123 44.0268 12.8571 40.5 12.8571H13.5C9.97321 12.8571 6.97286 15.123 5.86091 18.2857ZM48.6 23.7143H5.4V45.4286C5.4 49.9257 9.02649 53.5714 13.5 53.5714H40.5C44.9735 53.5714 48.6 49.9257 48.6 45.4286V23.7143ZM10.8 31.8571C10.8 30.3581 12.0088 29.1429 13.5 29.1429H24.3C25.7912 29.1429 27 30.3581 27 31.8571V42.7143C27 44.2133 25.7912 45.4286 24.3 45.4286H13.5C12.0088 45.4286 10.8 44.2133 10.8 42.7143V31.8571ZM21.6 34.5714H16.2V40H21.6V34.5714Z" fill="#3F82BE"/>
<path d="M91.424 59.048L85.568 52.712C84.128 53.128 82.544 53.336 80.816 53.336C77.712 53.336 74.848 52.616 72.224 51.176C69.632 49.704 67.568 47.672 66.032 45.08C64.528 42.456 63.776 39.512 63.776 36.248C63.776 32.984 64.528 30.056 66.032 27.464C67.568 24.872 69.632 22.856 72.224 21.416C74.848 19.944 77.712 19.208 80.816 19.208C83.952 19.208 86.816 19.944 89.408 21.416C92.032 22.856 94.096 24.872 95.6 27.464C97.104 30.056 97.856 32.984 97.856 36.248C97.856 39.32 97.184 42.104 95.84 44.6C94.528 47.064 92.704 49.048 90.368 50.552L98.384 59.048H91.424ZM69.392 36.248C69.392 38.712 69.872 40.888 70.832 42.776C71.824 44.632 73.184 46.072 74.912 47.096C76.64 48.088 78.608 48.584 80.816 48.584C83.024 48.584 84.992 48.088 86.72 47.096C88.448 46.072 89.792 44.632 90.752 42.776C91.744 40.888 92.24 38.712 92.24 36.248C92.24 33.784 91.744 31.624 90.752 29.768C89.792 27.912 88.448 26.488 86.72 25.496C84.992 24.504 83.024 24.008 80.816 24.008C78.608 24.008 76.64 24.504 74.912 25.496C73.184 26.488 71.824 27.912 70.832 29.768C69.872 31.624 69.392 33.784 69.392 36.248ZM127.333 26.552V53H121.861V49.88C120.997 50.968 119.861 51.832 118.453 52.472C117.077 53.08 115.605 53.384 114.037 53.384C111.957 53.384 110.085 52.952 108.421 52.088C106.789 51.224 105.493 49.944 104.533 48.248C103.605 46.552 103.141 44.504 103.141 42.104V26.552H108.565V41.288C108.565 43.656 109.157 45.48 110.341 46.76C111.525 48.008 113.141 48.632 115.189 48.632C117.237 48.632 118.853 48.008 120.037 46.76C121.253 45.48 121.861 43.656 121.861 41.288V26.552H127.333ZM137.337 23.048C136.345 23.048 135.513 22.712 134.841 22.04C134.169 21.368 133.833 20.536 133.833 19.544C133.833 18.552 134.169 17.72 134.841 17.048C135.513 16.376 136.345 16.04 137.337 16.04C138.297 16.04 139.113 16.376 139.785 17.048C140.457 17.72 140.793 18.552 140.793 19.544C140.793 20.536 140.457 21.368 139.785 22.04C139.113 22.712 138.297 23.048 137.337 23.048ZM140.025 26.552V53H134.553V26.552H140.025ZM145.385 39.752C145.385 37.032 145.929 34.648 147.017 32.6C148.137 30.52 149.673 28.92 151.625 27.8C153.577 26.68 155.817 26.12 158.345 26.12C161.545 26.12 164.185 26.888 166.265 28.424C168.377 29.928 169.801 32.088 170.537 34.904H164.633C164.153 33.592 163.385 32.568 162.329 31.832C161.273 31.096 159.945 30.728 158.345 30.728C156.105 30.728 154.313 31.528 152.969 33.128C151.657 34.696 151.001 36.904 151.001 39.752C151.001 42.6 151.657 44.824 152.969 46.424C154.313 48.024 156.105 48.824 158.345 48.824C161.513 48.824 163.609 47.432 164.633 44.648H170.537C169.769 47.336 168.329 49.48 166.217 51.08C164.105 52.648 161.481 53.432 158.345 53.432C155.817 53.432 153.577 52.872 151.625 51.752C149.673 50.6 148.137 49 147.017 46.952C145.929 44.872 145.385 42.472 145.385 39.752ZM186.455 39.8L198.647 53H191.255L181.463 41.624V53H175.991V17.48H181.463V38.12L191.063 26.552H198.647L186.455 39.8ZM220.425 35.864C222.217 36.184 223.737 37.128 224.985 38.696C226.233 40.264 226.857 42.04 226.857 44.024C226.857 45.72 226.409 47.256 225.513 48.632C224.649 49.976 223.385 51.048 221.721 51.848C220.057 52.616 218.121 53 215.913 53H202.569V19.64H215.289C217.561 19.64 219.513 20.024 221.145 20.792C222.777 21.56 224.009 22.6 224.841 23.912C225.673 25.192 226.089 26.632 226.089 28.232C226.089 30.152 225.577 31.752 224.553 33.032C223.529 34.312 222.153 35.256 220.425 35.864ZM208.041 33.656H214.809C216.601 33.656 217.993 33.256 218.985 32.456C220.009 31.624 220.521 30.44 220.521 28.904C220.521 27.4 220.009 26.232 218.985 25.4C217.993 24.536 216.601 24.104 214.809 24.104H208.041V33.656ZM215.433 48.536C217.289 48.536 218.745 48.088 219.801 47.192C220.857 46.296 221.385 45.048 221.385 43.448C221.385 41.816 220.825 40.52 219.705 39.56C218.585 38.6 217.097 38.12 215.241 38.12H208.041V48.536H215.433ZM244.275 53.432C241.779 53.432 239.523 52.872 237.507 51.752C235.491 50.6 233.907 49 232.755 46.952C231.603 44.872 231.027 42.472 231.027 39.752C231.027 37.064 231.619 34.68 232.803 32.6C233.987 30.52 235.603 28.92 237.651 27.8C239.699 26.68 241.987 26.12 244.515 26.12C247.043 26.12 249.331 26.68 251.379 27.8C253.427 28.92 255.043 30.52 256.227 32.6C257.411 34.68 258.003 37.064 258.003 39.752C258.003 42.44 257.395 44.824 256.179 46.904C254.963 48.984 253.299 50.6 251.187 51.752C249.107 52.872 246.803 53.432 244.275 53.432ZM244.275 48.68C245.683 48.68 246.995 48.344 248.211 47.672C249.459 47 250.467 45.992 251.235 44.648C252.003 43.304 252.387 41.672 252.387 39.752C252.387 37.832 252.019 36.216 251.283 34.904C250.547 33.56 249.571 32.552 248.355 31.88C247.139 31.208 245.827 30.872 244.419 30.872C243.011 30.872 241.699 31.208 240.483 31.88C239.299 32.552 238.355 33.56 237.651 34.904C236.947 36.216 236.595 37.832 236.595 39.752C236.595 42.6 237.315 44.808 238.755 46.376C240.227 47.912 242.067 48.68 244.275 48.68ZM274.885 53.432C272.389 53.432 270.133 52.872 268.117 51.752C266.101 50.6 264.517 49 263.365 46.952C262.213 44.872 261.637 42.472 261.637 39.752C261.637 37.064 262.229 34.68 263.413 32.6C264.597 30.52 266.213 28.92 268.261 27.8C270.309 26.68 272.597 26.12 275.125 26.12C277.653 26.12 279.941 26.68 281.989 27.8C284.037 28.92 285.653 30.52 286.837 32.6C288.021 34.68 288.613 37.064 288.613 39.752C288.613 42.44 288.005 44.824 286.789 46.904C285.573 48.984 283.909 50.6 281.797 51.752C279.717 52.872 277.413 53.432 274.885 53.432ZM274.885 48.68C276.293 48.68 277.605 48.344 278.821 47.672C280.069 47 281.077 45.992 281.845 44.648C282.613 43.304 282.997 41.672 282.997 39.752C282.997 37.832 282.629 36.216 281.893 34.904C281.157 33.56 280.181 32.552 278.965 31.88C277.749 31.208 276.437 30.872 275.029 30.872C273.621 30.872 272.309 31.208 271.093 31.88C269.909 32.552 268.965 33.56 268.261 34.904C267.557 36.216 267.205 37.832 267.205 39.752C267.205 42.6 267.925 44.808 269.365 46.376C270.837 47.912 272.677 48.68 274.885 48.68ZM304.486 39.8L316.678 53H309.286L299.494 41.624V53H294.022V17.48H299.494V38.12L309.094 26.552H316.678L304.486 39.8ZM344.84 39.128C344.84 40.12 344.776 41.016 344.648 41.816H324.44C324.6 43.928 325.384 45.624 326.792 46.904C328.2 48.184 329.928 48.824 331.976 48.824C334.92 48.824 337 47.592 338.216 45.128H344.12C343.32 47.56 341.864 49.56 339.752 51.128C337.672 52.664 335.08 53.432 331.976 53.432C329.448 53.432 327.176 52.872 325.16 51.752C323.176 50.6 321.608 49 320.456 46.952C319.336 44.872 318.776 42.472 318.776 39.752C318.776 37.032 319.32 34.648 320.408 32.6C321.528 30.52 323.08 28.92 325.064 27.8C327.08 26.68 329.384 26.12 331.976 26.12C334.472 26.12 336.696 26.664 338.648 27.752C340.6 28.84 342.12 30.376 343.208 32.36C344.296 34.312 344.84 36.568 344.84 39.128ZM339.128 37.4C339.096 35.384 338.376 33.768 336.968 32.552C335.56 31.336 333.816 30.728 331.736 30.728C329.848 30.728 328.232 31.336 326.888 32.552C325.544 33.736 324.744 35.352 324.488 37.4H339.128ZM355.697 30.392C356.497 29.048 357.553 28.008 358.865 27.272C360.209 26.504 361.793 26.12 363.617 26.12V31.784H362.225C360.081 31.784 358.449 32.328 357.329 33.416C356.241 34.504 355.697 36.392 355.697 39.08V53H350.225V26.552H355.697V30.392Z" fill="white"/>
</svg>
